<svg width="1080" height="306" viewBox="0 0 1080 306" fill="none" xmlns="http://www.w3.org/2000/svg">
<path d="M136.438 160.37C136.438 189.995 157.657 208.917 185.756 208.917C199.764 208.917 213.773 204.902 223.147 196.693C223.521 196.365 223.584 195.81 223.303 195.4L213.753 181.418C213.403 180.906 212.678 180.832 212.211 181.24C206.202 186.492 196.623 189.615 188.427 189.615C173.263 189.615 164.004 180.487 162.033 169.335C161.928 168.741 162.396 168.209 163 168.209L229.479 168.209C230.032 168.209 230.479 167.761 230.479 167.209V162.855C230.479 132.657 211.75 112.011 184.224 112.011C156.125 112.011 136.438 133.61 136.438 160.37ZM184.224 131.318C199.643 131.318 205.894 142.066 206.874 150.71C206.939 151.284 206.48 151.771 205.902 151.771H162.612C162.011 151.771 161.544 151.245 161.644 150.652C163.163 141.703 169.734 131.318 184.224 131.318Z" fill="#FEFAF4"/>
<path d="M334.975 206.625C335.527 206.625 335.975 206.178 335.975 205.625V80.1359C335.975 79.5836 335.527 79.1359 334.975 79.1359H312.511C311.959 79.1359 311.511 79.5836 311.511 80.1359V123.236C311.511 124.189 310.275 124.624 309.637 123.916C302.526 116.03 293.022 112.011 283.032 112.011C259.522 112.011 242.126 130.36 242.126 160.563C242.126 191.334 259.714 208.917 283.032 208.917C293.203 208.917 302.571 204.733 309.66 197.101C310.301 196.41 311.511 196.848 311.511 197.791V205.625C311.511 206.178 311.959 206.625 312.511 206.625H334.975ZM311.511 176.497C311.511 176.699 311.451 176.897 311.334 177.062C307.069 183.044 298.59 187.318 290.485 187.318C276.725 187.318 267.167 176.428 267.167 160.563C267.167 144.506 276.725 133.61 290.485 133.61C298.59 133.61 307.069 137.885 311.334 143.872C311.451 144.036 311.511 144.234 311.511 144.436V176.497Z" fill="#FEFAF4"/>
<path d="M445.632 206.625C446.184 206.625 446.632 206.178 446.632 205.625V115.308C446.632 114.755 446.184 114.308 445.632 114.308H423.361C422.809 114.308 422.361 114.755 422.361 115.308V176.462C422.361 176.686 422.287 176.903 422.146 177.077C417.902 182.334 410.542 187.318 401.335 187.318C391.012 187.318 384.324 183.115 384.324 170.308V115.308C384.324 114.755 383.877 114.308 383.324 114.308H361.048C360.496 114.308 360.048 114.755 360.048 115.308V179.865C360.048 197.834 369.606 208.917 389.866 208.917C403.61 208.917 414.031 203.216 420.548 196.859C421.205 196.217 422.361 196.669 422.361 197.588V205.625C422.361 206.178 422.809 206.625 423.361 206.625H445.632Z" fill="#FEFAF4"/>
<path d="M467.666 160.37C467.666 187.896 486.208 208.917 513.729 208.917C530.551 208.917 540.489 202.037 547.562 192.865L538.005 184.073C531.89 192.292 524.051 196.115 514.494 196.115C494.807 196.115 482.572 180.823 482.572 160.37C482.572 139.917 494.807 124.818 514.494 124.818C524.051 124.818 531.89 128.448 538.005 136.86L547.562 128.068C540.489 118.891 530.551 112.011 513.729 112.011C486.208 112.011 467.666 133.037 467.666 160.37Z" fill="#FEFAF4"/>
<path d="M562.27 160.37C562.27 189.23 581.957 208.917 609.291 208.917C624.39 208.917 636.811 203.948 645.989 194.776L639.108 185.407C631.843 192.865 621.14 197.068 610.629 197.068C590.749 197.068 578.515 182.542 577.369 165.146H652.103V161.516C652.103 133.803 635.666 112.011 607.759 112.011C581.384 112.011 562.27 133.61 562.27 160.37ZM607.567 123.865C628.593 123.865 637.77 140.875 637.957 154.636H577.369C578.134 140.49 587.879 123.865 607.567 123.865Z" fill="#FEFAF4"/>
<path d="M689.557 206.625V141.256C693.76 133.802 705.802 126.537 714.593 126.537C716.89 126.537 718.609 126.73 720.328 127.11V112.396C707.713 112.396 697.01 119.464 689.557 129.214V114.308H675.218V206.625H689.557Z" fill="#FEFAF4"/>
<path d="M814.933 206.625V141.829C814.933 121.761 804.803 112.011 785.501 112.011C771.741 112.011 759.126 120.042 752.626 127.688V114.308H738.287V206.625H752.626V139.151C757.975 131.698 768.678 124.818 779.959 124.818C792.381 124.818 800.6 129.98 800.6 146.224V206.625H814.933Z" fill="#FEFAF4"/>
<path d="M835.568 194.391C844.932 204.334 857.74 208.917 872.839 208.917C896.734 208.917 909.156 196.495 909.156 181.011C909.156 160.563 890.615 155.974 874.563 152.344C862.521 149.474 852.005 146.61 852.005 137.625C852.005 129.407 859.844 123.672 872.458 123.672C884.307 123.672 894.438 128.641 899.979 135.329L906.672 125.391C899.219 117.938 888.13 112.011 872.458 112.011C850.479 112.011 838.052 124.245 838.052 138.579C838.052 157.693 855.828 161.901 871.5 165.532C883.927 168.589 895.203 171.839 895.203 181.969C895.203 190.954 887.557 197.261 873.412 197.261C860.797 197.261 849.141 191.141 843.021 184.073L835.568 194.391Z" fill="#FEFAF4"/>
<mask id="mask0_9_56" style="mask-type:luminance" maskUnits="userSpaceOnUse" x="880" y="71" width="23" height="22">
<path d="M880.801 71.5H902.005V92.7031H880.801V71.5Z" fill="white"/>
</mask>
<g mask="url(#mask0_9_56)">
<path d="M880.801 72.5C880.801 71.9477 881.249 71.5 881.801 71.5H901.005C901.557 71.5 902.005 71.9477 902.005 72.5V91.7031C902.005 92.2554 901.557 92.7031 901.005 92.7031H881.801C881.249 92.7031 880.801 92.2554 880.801 91.7031V72.5Z" fill="#00A843"/>
</g>
<mask id="mask1_9_56" style="mask-type:luminance" maskUnits="userSpaceOnUse" x="922" y="71" width="22" height="22">
<path d="M922.359 71.5H943.562V92.7031H922.359V71.5Z" fill="white"/>
</mask>
<g mask="url(#mask1_9_56)">
<path d="M943.562 71.5V92.7031H922.359V71.5H943.562Z" fill="#00B9F1"/>
</g>
<mask id="mask2_9_56" style="mask-type:luminance" maskUnits="userSpaceOnUse" x="901" y="71" width="22" height="22">
<path d="M901.583 71.5H922.786V92.7031H901.583V71.5Z" fill="white"/>
</mask>
<g mask="url(#mask2_9_56)">
<path d="M901.583 71.5H922.786V92.7031H901.583V71.5Z" fill="#0057A1"/>
</g>
<mask id="mask3_9_56" style="mask-type:luminance" maskUnits="userSpaceOnUse" x="922" y="92" width="22" height="22">
<path d="M922.359 92.2812H943.562V113.484H922.359V92.2812Z" fill="white"/>
</mask>
<g mask="url(#mask3_9_56)">
<path d="M943.562 92.2812V113.484H922.359V92.2812H943.562Z" fill="#FF8800"/>
</g>
<mask id="mask4_9_56" style="mask-type:luminance" maskUnits="userSpaceOnUse" x="922" y="113" width="22" height="22">
<path d="M922.359 113.062H943.562V134.266H922.359V113.062Z" fill="white"/>
</mask>
<g mask="url(#mask4_9_56)">
<path d="M943.562 113.062V134.266H922.359V113.062H943.562Z" fill="#FF3333"/>
</g>
<rect x="467.552" y="227.5" width="442" height="7" rx="3.5" fill="url(#paint0_linear_9_56)"/>
<defs>
<linearGradient id="paint0_linear_9_56" x1="467.552" y1="231" x2="909.552" y2="231" gradientUnits="userSpaceOnUse">
<stop stop-color="#00A843"/>
<stop offset="0.245192" stop-color="#0057A1"/>
<stop offset="0.495192" stop-color="#00B9F1"/>
<stop offset="0.754808" stop-color="#FF8800"/>
<stop offset="1" stop-color="#FF3333"/>
</linearGradient>
</defs>
</svg>
